<svg width="30" height="30" viewBox="0 0 30 30" fill="none" xmlns="http://www.w3.org/2000/svg">
<path fill-rule="evenodd" clip-rule="evenodd" d="M28.125 15C28.125 14.7513 28.0262 14.5129 27.8504 14.3371C27.6746 14.1612 27.4361 14.0625 27.1875 14.0625H5.07559L10.9762 8.16371C11.0634 8.07655 11.1325 7.97307 11.1797 7.85918C11.2269 7.7453 11.2512 7.62323 11.2512 7.49996C11.2512 7.37669 11.2269 7.25463 11.1797 7.14074C11.1325 7.02686 11.0634 6.92338 10.9762 6.83621C10.8891 6.74905 10.7856 6.67991 10.6717 6.63273C10.5578 6.58556 10.4357 6.56128 10.3125 6.56128C10.1892 6.56128 10.0671 6.58556 9.95325 6.63273C9.83936 6.67991 9.73588 6.74905 9.64872 6.83621L2.14872 14.3362C2.06141 14.4233 1.99214 14.5268 1.94488 14.6407C1.89762 14.7545 1.87329 14.8766 1.87329 15C1.87329 15.1233 1.89762 15.2454 1.94488 15.3593C1.99214 15.4732 2.06141 15.5766 2.14872 15.6637L9.64872 23.1637C9.73588 23.2509 9.83936 23.32 9.95325 23.3672C10.0671 23.4144 10.1892 23.4386 10.3125 23.4386C10.4357 23.4386 10.5578 23.4144 10.6717 23.3672C10.7856 23.32 10.8891 23.2509 10.9762 23.1637C11.0634 23.0765 11.1325 22.9731 11.1797 22.8592C11.2269 22.7453 11.2512 22.6232 11.2512 22.5C11.2512 22.3767 11.2269 22.2546 11.1797 22.1407C11.1325 22.0269 11.0634 21.9234 10.9762 21.8362L5.07559 15.9375H27.1875C27.4361 15.9375 27.6746 15.8387 27.8504 15.6629C28.0262 15.4871 28.125 15.2486 28.125 15Z" fill="black"/>
</svg>
